# xmcd CD database file
#
# Track frame offsets:
#	182
#	20037
#	42817
#	65212
#	84212
#	102910
#	124535
#	138147
#
# Disc length: 2246 seconds
#
# Revision: 0
# Processed by: cddbd v1.5.1PL0 Copyright (c) Steve Scherf et al.
# Submitted via: CDex 1.51
#
DISCID=6208c408
DTITLE=Tania Maria - Made In New York
DYEAR=1985
DGENRE=Jazz
TTITLE0=Don't Go
TTITLE1=E Carnival
TTITLE2=My Space
TTITLE3=I Do I Love You
TTITLE4=Made In New York
TTITLE5=Together
TTITLE6=Forock
TTITLE7=Walking In The Rain
EXTD=YEAR: 1985
EXTT0=
EXTT1=
EXTT2=
EXTT3=
EXTT4=
EXTT5=
EXTT6=
EXTT7=
PLAYORDER=
